<svg xmlns="http://www.w3.org/2000/svg" width="16.6" height="14.374" viewBox="0 0 16.6 14.374">
  <path id="Union_1" data-name="Union 1" d="M3.906,14.116,2.081,11.938a1.894,1.894,0,0,1-.436-1.509A1.917,1.917,0,0,1,2.479,9.1,1.894,1.894,0,0,1,3.55,8.771a1.923,1.923,0,0,1,1.369.567l.577.568V3.383H2.442l.7.713a.724.724,0,0,1,.212.529.679.679,0,0,1-.208.475.669.669,0,0,1-.5.21.692.692,0,0,1-.5-.205L.205,3.162A.738.738,0,0,1,0,2.665a.742.742,0,0,1,.205-.5L2.165.207A.7.7,0,0,1,2.662,0a.753.753,0,0,1,.5.2.675.675,0,0,1,.225.491.727.727,0,0,1-.213.53l-.728.728H5.583a1.905,1.905,0,0,1,3.189-.868l.007.007a2.032,2.032,0,0,1,.478.86h2.5a2.126,2.126,0,1,1,2,2.845,2.11,2.11,0,0,1-2-1.408H9.328V5.64a1.973,1.973,0,0,1,.488-.059,1.923,1.923,0,0,1,1.613.888,1.9,1.9,0,0,1,.783-.167,1.921,1.921,0,0,1,1.613.888,1.885,1.885,0,0,1,.783-.168,1.91,1.91,0,0,1,1.908,1.906l.084,4.693a.719.719,0,1,1-1.437,0V8.914a.487.487,0,0,0-.975,0v.8a.719.719,0,0,1-1.438,0V8.21a.487.487,0,0,0-.975,0v.8a.719.719,0,1,1-1.437,0V7.49a.487.487,0,1,0-.975,0v.8a.719.719,0,0,1-1.438,0V2.446a.485.485,0,0,0-.147-.34.427.427,0,0,0-.316-.148H7.438a.488.488,0,0,0-.488.487v8.511a.968.968,0,0,1-.627.916,1,1,0,0,1-.371.071.988.988,0,0,1-.7-.289l-1.319-1.3a.553.553,0,0,0-.374-.153.512.512,0,0,0-.494.422.551.551,0,0,0,.119.4L5,13.194a.718.718,0,0,1-.079,1l-.014.011a.7.7,0,0,1-.455.167A.717.717,0,0,1,3.906,14.116Zm-1.6-2.371,1.826,2.178a.409.409,0,0,0,.587.05.434.434,0,0,0,.146-.32.434.434,0,0,1-.146.32.409.409,0,0,1-.587-.05L2.31,11.745a1.607,1.607,0,0,1-.385-1.039A1.607,1.607,0,0,0,2.31,11.745Zm13.152,1.877a.419.419,0,0,0,.838,0,.419.419,0,0,1-.838,0ZM4.136,10.137,5.46,11.444a.7.7,0,0,0,.754.151.671.671,0,0,0,.436-.637V2.446a.786.786,0,0,1,.787-.787.724.724,0,0,1,.553.234.791.791,0,0,1,.234.553.791.791,0,0,0-.234-.553.724.724,0,0,0-.553-.234.786.786,0,0,0-.787.787v8.511a.671.671,0,0,1-.436.637.7.7,0,0,1-.754-.151L4.136,10.137a.812.812,0,0,0-1.022-.1.768.768,0,0,0-.352.554q0,.041,0,.082,0-.041,0-.082a.811.811,0,0,1,.792-.69A.851.851,0,0,1,4.136,10.137Zm8.914-.418a.418.418,0,0,0,.837,0v-.8a.788.788,0,0,1,1.575,0,.788.788,0,0,0-1.575,0v.8a.418.418,0,0,1-.837,0Zm-2.413-.7a.419.419,0,0,0,.838,0v-.8a.787.787,0,0,1,1.575,0,.787.787,0,0,0-1.575,0v.8a.419.419,0,0,1-.838,0ZM8.224,8.293a.419.419,0,1,0,.838,0v-.8a.787.787,0,1,1,1.575,0,.787.787,0,1,0-1.575,0v.8a.419.419,0,1,1-.838,0Zm.8-2.211v-3h2.948a1.826,1.826,0,0,0,3.6-.418,1.826,1.826,0,0,1-3.6.418H9.029ZM.3,2.665a.435.435,0,0,0,.118.284L2.361,4.892a.39.39,0,0,0,.285.118.365.365,0,0,0,.284-.118.382.382,0,0,0,.126-.287.382.382,0,0,1-.126.287.365.365,0,0,1-.284.118.39.39,0,0,1-.285-.118L.418,2.949A.435.435,0,0,1,.3,2.665Zm12.749,0a.705.705,0,1,0,.706-.706A.7.7,0,0,0,13.048,2.665ZM5.8,3.083h0Zm8.964-.418A1.008,1.008,0,0,0,13.754,1.66a1,1,0,0,0-1.005,1.005A1,1,0,0,1,13.754,1.66,1.008,1.008,0,0,1,14.759,2.665ZM2.964,1.006,1.724,2.246,2.964,1.006a.424.424,0,0,0,.126-.3A.424.424,0,0,1,2.964,1.006Z" fill="#00af50"/>
</svg>
