<svg xmlns="http://www.w3.org/2000/svg" width="16" height="16" viewBox="0 0 16 16">
  <g id="Import" transform="translate(-335 -896)">
    <path id="Path_3" data-name="Path 3" d="M83.024,150.637H80.368v1.584h2.656c.784,0,1.408.4,1.408.752V160c0,.352-.608.752-1.408.752H72.976c-.784,0-1.408-.4-1.408-.752v-7.008c0-.352.608-.752,1.408-.752h2.656v-1.584H72.976c-1.664,0-2.976,1.024-2.976,2.32V160c0,1.312,1.312,2.336,2.976,2.336H83.024c1.664,0,2.976-1.024,2.976-2.336v-7.024c0-1.312-1.312-2.336-2.976-2.336Z" transform="translate(265 749.667)" fill="#fff"/>
    <path id="Path_4" data-name="Path 4" d="M246.163,7.622a.777.777,0,0,0-.56.24l-.992.992V.79a.784.784,0,1,0-1.568,0v8.1L242,7.847a.774.774,0,0,0-1.12,0,.8.8,0,0,0,0,1.12l2.352,2.368a.774.774,0,0,0,1.12,0l2.368-2.368a.8.8,0,0,0,0-1.12.828.828,0,0,0-.56-.224Z" transform="translate(99.222 895.994)" fill="#fff"/>
  </g>
</svg>
