<svg xmlns="http://www.w3.org/2000/svg" width="16" height="16" viewBox="0 0 16 16">
  <path id="Save" d="M14.006,16.5H2.995A2.495,2.495,0,0,1,.5,14.006V2.995A2.493,2.493,0,0,1,2.995.5h7.336A.713.713,0,0,1,10.6.554.656.656,0,0,1,10.8.691l5.5,5.5a.656.656,0,0,1,.191.469v7.341A2.5,2.5,0,0,1,14.006,16.5ZM6.666,9.676h3.67a2.5,2.5,0,0,1,2.5,2.494v3.011h1.175a1.175,1.175,0,0,0,1.175-1.175V6.934L10.995,2.748V4.83a.66.66,0,0,1-.66.66H4.83a.66.66,0,0,1-.66-.66V1.819H2.995A1.175,1.175,0,0,0,1.82,2.995V14.006a1.175,1.175,0,0,0,1.175,1.175H4.17V12.17a2.5,2.5,0,0,1,2.5-2.494Zm0,1.319A1.175,1.175,0,0,0,5.489,12.17v3.011h6.022V12.17a1.177,1.177,0,0,0-1.176-1.175ZM5.489,1.819V4.17H9.676V1.819Z" transform="translate(-0.5 -0.5)" fill="#fff"/>
</svg>
