<svg xmlns="http://www.w3.org/2000/svg" width="21" height="22" viewBox="0 0 21 22">
  <g id="Save_As" data-name="Save As" transform="translate(-1115 -22)">
    <path id="Subtraction_2" data-name="Subtraction 2" d="M14.006,16.5H2.995A2.495,2.495,0,0,1,.5,14.006V2.995A2.493,2.493,0,0,1,2.995.5h7.336A.713.713,0,0,1,10.6.554.656.656,0,0,1,10.8.691l5.5,5.5a.656.656,0,0,1,.191.469v7.341A2.5,2.5,0,0,1,14.006,16.5ZM6.666,9.676h3.67a2.5,2.5,0,0,1,2.5,2.494v3.011h1.175a1.175,1.175,0,0,0,1.175-1.175V6.934L10.995,2.748V4.83a.66.66,0,0,1-.66.66H4.83a.66.66,0,0,1-.66-.66V1.819H2.995A1.175,1.175,0,0,0,1.82,2.995V14.006a1.175,1.175,0,0,0,1.175,1.175H4.17V12.17a2.5,2.5,0,0,1,2.5-2.494Zm0,1.319A1.175,1.175,0,0,0,5.489,12.17v3.011h6.022V12.17a1.177,1.177,0,0,0-1.176-1.175ZM5.489,1.819V4.17H9.676V1.819Z" transform="translate(1114.5 21.5)" fill="#fff"/>
    <g id="Group_8" data-name="Group 8" transform="translate(-2 -1)">
      <circle id="Ellipse_5" data-name="Ellipse 5" cx="3.667" cy="3.667" r="3.667" transform="translate(1128.833 35.833)" fill="#002060"/>
      <path id="Icon_awesome-arrow-circle-down" data-name="Icon awesome-arrow-circle-down" d="M11.563,6.063a5.5,5.5,0,1,1-5.5-5.5A5.5,5.5,0,0,1,11.563,6.063ZM8.378,5.422,6.772,7.1V3.046a.531.531,0,0,0-.532-.532H5.885a.531.531,0,0,0-.532.532V7.1L3.747,5.422a.533.533,0,0,0-.761-.009l-.242.244a.53.53,0,0,0,0,.752L5.685,9.351a.53.53,0,0,0,.752,0L9.38,6.408a.53.53,0,0,0,0-.752l-.242-.244a.533.533,0,0,0-.761.009Z" transform="translate(1126.438 33.438)" fill="#fff"/>
    </g>
  </g>
</svg>
